# Blender v3.0.0 OBJ File: 'big_flower_pot.blend'
# www.blender.org
mtllib big_flower_pot.mtl
o Cylinder
v 0.076537 -0.184776 0.500000
v 0.019134 -0.046194 0.475000
v 0.184776 -0.076537 0.500000
v 0.184776 0.076537 0.500000
v -0.019134 -0.046194 0.475000
v 0.076536 0.184776 0.500000
v -0.076537 0.184776 0.500000
v -0.046194 -0.019134 0.475000
v -0.184776 0.076537 0.500000
v -0.046194 0.019134 0.475000
v -0.184776 -0.076537 0.500000
v -0.076537 -0.184776 0.500000
v -0.019134 0.046194 0.475000
v 0.095671 -0.230970 0.150000
v 0.230970 -0.095671 0.150000
v 0.230970 0.095671 0.150000
v 0.019134 0.046194 0.475000
v 0.095671 0.230970 0.150000
v -0.095671 0.230970 0.150000
v 0.046194 0.019134 0.475000
v -0.230970 0.095671 0.150000
v 0.046194 -0.019134 0.475000
v -0.230970 -0.095671 0.150000
v -0.095671 -0.230970 0.150000
v 0.277164 -0.114805 0.000000
v 0.114805 -0.277164 0.000000
v 0.114805 -0.277164 0.150000
v 0.277164 0.114805 0.000000
v 0.114805 0.277164 0.000000
v -0.114805 0.277164 0.000000
v -0.277164 0.114805 -0.000000
v -0.277164 -0.114805 -0.000000
v -0.114805 -0.277164 -0.000000
v 0.277164 -0.114805 0.150000
v 0.277164 0.114805 0.150000
v 0.114805 0.277164 0.150000
v -0.114805 0.277164 0.150000
v -0.277164 0.114805 0.150000
v -0.277164 -0.114805 0.150000
v -0.114805 -0.277164 0.150000
v 0.036428 -0.277164 -0.000000
v 0.000000 -0.277164 0.150000
v -0.019975 -0.277164 0.134842
v 0.018588 -0.277164 0.097549
v -0.042964 -0.277164 -0.000000
v 0.001701 -0.277164 0.067263
v -0.015398 -0.277164 0.133604
v -0.013563 -0.277164 0.098812
v -0.044062 -0.277164 0.073204
v 0.034746 -0.277164 0.035733
v -0.037208 -0.277164 0.044823
v 0.031735 -0.177164 -0.000000
v -0.022849 -0.177164 0.134842
v 0.018299 -0.177164 0.097549
v -0.037722 -0.177164 -0.000000
v 0.004816 -0.177164 0.067263
v -0.017311 -0.177164 0.133604
v -0.003345 -0.177164 0.098614
v -0.028744 -0.177164 0.075581
v 0.027063 -0.177164 0.035733
v -0.021956 -0.177164 0.047398
v -0.019134 -0.046194 0.500000
v 0.019134 -0.046194 0.500000
v 0.046194 0.019134 0.500000
v 0.019134 0.046194 0.500000
v 0.046194 -0.019134 0.500000
v -0.046194 -0.019134 0.500000
v -0.019134 0.046194 0.500000
v -0.046194 0.019134 0.500000
vt 0.750000 0.750000
vt 0.625000 0.750000
vt 0.625000 0.750000
vt 0.500000 0.750000
vt 0.500000 0.750000
vt 0.375000 0.750000
vt 0.375000 0.750000
vt 0.250000 0.750000
vt 0.250000 0.750000
vt 0.792427 0.207574
vt 0.810000 0.250000
vt 0.990000 0.250000
vt 0.707574 0.292426
vt 0.690000 0.250000
vt 0.510000 0.250000
vt 0.125000 0.750000
vt 0.000000 0.500000
vt 0.125000 0.500000
vt 0.250000 0.500000
vt 0.375000 0.500000
vt 0.500000 0.500000
vt 0.625000 0.500000
vt 0.750000 0.500000
vt 0.875000 0.750000
vt 0.875000 0.500000
vt 1.000000 0.500000
vt 0.875000 0.750000
vt 0.000000 0.000000
vt 0.875000 1.000000
vt 0.750000 0.750000
vt 0.750000 1.000000
vt 0.625000 1.000000
vt 0.500000 1.000000
vt 0.375000 1.000000
vt 0.125000 0.750000
vt 0.250000 1.000000
vt 0.000000 0.000000
vt 1.000000 0.750000
vt 0.062500 0.750000
vt 0.000000 0.000000
vt 0.000000 0.000000
vt 1.000000 0.750000
vt 0.000000 0.000000
vt 0.000000 0.000000
vt 0.000000 0.000000
vt 0.000000 0.000000
vt 0.000000 0.000000
vt 0.792426 0.292426
vt 0.919706 0.419706
vt 0.919706 0.080294
vt 0.750000 0.010000
vt 0.580294 0.080294
vt 0.750000 0.190000
vt 0.707574 0.207574
vt 0.580294 0.419706
vt 0.750000 0.490000
vt 0.750000 0.310000
vt 0.000000 0.750000
vt 0.000000 0.750000
vt 0.000000 0.000000
vt 0.000000 0.000000
vt 0.000000 0.000000
vt 0.000000 0.000000
vt 0.000000 0.000000
vt 0.000000 0.000000
vt 0.000000 0.000000
vt 0.000000 0.000000
vt 0.000000 0.000000
vt 0.000000 0.000000
vt 0.750000 0.010000
vt 0.990000 0.250000
vt 0.750000 0.490000
vt 0.000000 0.000000
vt 0.000000 0.000000
vt 0.000000 0.000000
vt 0.000000 0.000000
vt 0.919706 0.080294
vt 0.919706 0.419706
vt 0.580294 0.419706
vt 0.510000 0.250000
vt 0.580294 0.080294
vt 1.000000 0.750000
vt 0.875000 0.500000
vt 0.875000 0.750000
vt 0.750000 0.750000
vt 0.750000 0.500000
vt 0.625000 0.750000
vt 0.625000 0.500000
vt 0.500000 0.750000
vt 0.500000 0.500000
vt 0.375000 0.750000
vt 0.375000 0.500000
vt 0.250000 0.750000
vt 0.250000 0.500000
vt 0.125000 0.750000
vt 0.000000 0.500000
vt 0.000000 0.750000
vt 1.000000 0.500000
vt 0.125000 0.500000
vn -0.0000 -0.0000 1.0000
vn -0.0000 -0.9914 0.1308
vn -0.7010 -0.7010 0.1308
vn -0.9914 -0.0000 0.1308
vn -0.7010 0.7010 0.1308
vn -0.0000 0.9914 0.1308
vn 0.7010 0.7010 0.1308
vn 0.9914 0.0000 0.1308
vn 0.7010 -0.7010 0.1308
vn 0.7071 -0.7071 0.0000
vn 1.0000 -0.0000 0.0000
vn 0.7071 0.7071 0.0000
vn -0.0000 1.0000 0.0000
vn -0.7071 0.7071 0.0000
vn -1.0000 -0.0000 -0.0000
vn -0.7071 -0.7071 -0.0000
vn -0.0000 -1.0000 -0.0000
vn 0.2141 0.1940 0.9574
vn -0.6894 -0.0530 -0.7225
vn -0.9978 -0.0468 -0.0470
vn -0.8731 0.0272 0.4868
vn 0.9841 0.0283 0.1751
vn 0.6701 -0.0699 -0.7389
vn -0.7277 -0.0021 -0.6859
vn 0.9607 -0.1527 0.2320
vn 0.9402 -0.1353 -0.3127
vn 0.6044 0.0174 -0.7965
vn -0.7289 -0.0139 0.6845
vn -0.8168 0.0255 -0.5763
vn -0.9887 -0.0760 -0.1293
vn -0.9136 -0.0026 0.4067
vn 0.8770 -0.0887 0.4722
vn 0.6410 -0.0800 -0.7634
vn -0.7114 -0.0136 -0.7026
vn 0.9608 -0.1525 0.2314
vn 0.9905 -0.0519 -0.1272
usemtl wood
s off
f 16/1/1 36/2/1 18/3/1
f 18/3/1 37/4/1 19/5/1
f 21/6/1 37/4/1 38/7/1
f 21/6/1 39/8/1 23/9/1
f 65/10/1 64/11/1 4/12/1
f 62/13/1 67/14/1 11/15/1
f 24/16/2 1/17/2 12/18/2
f 23/9/3 12/18/3 11/19/3
f 21/6/4 11/19/4 9/20/4
f 19/5/5 9/20/5 7/21/5
f 18/3/6 7/21/6 6/22/6
f 16/1/7 6/22/7 4/23/7
f 15/24/8 4/23/8 3/25/8
f 1/26/9 15/24/9 3/25/9
f 34/27/10 26/28/10 25/29/10
f 25/29/11 35/30/11 34/27/11
f 28/31/12 36/2/12 35/30/12
f 29/32/13 37/4/13 36/2/13
f 30/33/14 38/7/14 37/4/14
f 31/34/15 39/8/15 38/7/15
f 40/35/16 32/36/16 33/37/16
f 15/24/1 35/30/1 16/1/1
f 14/38/1 34/27/1 15/24/1
f 24/16/1 40/35/1 42/39/1
f 23/9/1 40/35/1 24/16/1
f 49/40/17 43/41/17 40/35/17
f 27/42/17 44/43/17 50/44/17
f 53/45/18 42/46/18 57/47/18
f 16/1/1 35/30/1 36/2/1
f 18/3/1 36/2/1 37/4/1
f 21/6/1 19/5/1 37/4/1
f 21/6/1 38/7/1 39/8/1
f 64/11/1 66/48/1 3/49/1
f 3/49/1 4/12/1 64/11/1
f 4/12/1 6/50/1 65/10/1
f 6/50/1 7/51/1 65/10/1
f 7/51/1 9/52/1 68/53/1
f 65/10/1 7/51/1 68/53/1
f 9/52/1 69/54/1 68/53/1
f 67/14/1 69/54/1 9/52/1
f 9/52/1 11/15/1 67/14/1
f 11/15/1 12/55/1 62/13/1
f 12/55/1 1/56/1 62/13/1
f 1/56/1 3/49/1 63/57/1
f 62/13/1 1/56/1 63/57/1
f 3/49/1 66/48/1 63/57/1
f 24/16/2 14/58/2 1/17/2
f 23/9/3 24/16/3 12/18/3
f 21/6/4 23/9/4 11/19/4
f 19/5/5 21/6/5 9/20/5
f 18/3/6 19/5/6 7/21/6
f 16/1/7 18/3/7 6/22/7
f 15/24/8 16/1/8 4/23/8
f 1/26/9 14/38/9 15/24/9
f 34/27/10 27/42/10 26/28/10
f 25/29/11 28/31/11 35/30/11
f 28/31/12 29/32/12 36/2/12
f 29/32/13 30/33/13 37/4/13
f 30/33/14 31/34/14 38/7/14
f 31/34/15 32/36/15 39/8/15
f 40/35/16 39/8/16 32/36/16
f 15/24/1 34/27/1 35/30/1
f 14/38/1 27/42/1 34/27/1
f 42/39/1 27/59/1 14/58/1
f 14/58/1 24/16/1 42/39/1
f 23/9/1 39/8/1 40/35/1
f 49/40/17 48/60/17 43/41/17
f 43/41/17 42/39/17 40/35/17
f 40/35/17 33/37/17 49/40/17
f 33/37/17 45/61/17 51/62/17
f 49/40/17 33/37/17 51/62/17
f 50/44/17 41/63/17 26/28/17
f 26/28/17 27/42/17 50/44/17
f 27/42/17 42/39/17 44/43/17
f 42/39/17 47/64/17 44/43/17
f 44/43/17 46/65/17 50/44/17
usemtl Dark
f 41/63/1 55/66/1 45/61/1
f 56/67/17 54/68/17 58/69/17
f 13/70/1 8/71/1 2/72/1
f 41/63/1 52/73/1 55/66/1
f 58/69/17 59/74/17 56/67/17
f 59/74/17 61/75/17 56/67/17
f 61/75/17 55/66/17 60/76/17
f 55/66/17 52/73/17 60/76/17
f 60/76/17 56/67/17 61/75/17
f 54/68/17 57/47/17 58/69/17
f 57/47/17 53/45/17 58/69/17
f 13/70/1 10/77/1 8/71/1
f 8/71/1 5/78/1 2/72/1
f 2/72/1 22/79/1 13/70/1
f 22/79/1 20/80/1 13/70/1
f 20/80/1 17/81/1 13/70/1
usemtl Inside_Wall
f 46/65/19 60/76/19 50/44/19
f 50/44/20 52/73/20 41/63/20
f 44/43/21 56/67/21 46/65/21
f 48/60/22 53/45/22 43/41/22
f 48/60/23 59/74/23 58/69/23
f 47/64/24 54/68/24 44/43/24
f 51/62/25 59/74/25 49/40/25
f 51/62/26 55/66/26 61/75/26
f 42/46/27 43/41/27 53/45/27
f 47/64/28 42/46/28 57/47/28
f 63/82/13 5/83/13 62/84/13
f 5/83/12 67/85/12 62/84/12
f 8/86/11 69/87/11 67/85/11
f 10/88/10 68/89/10 69/87/10
f 13/90/17 65/91/17 68/89/17
f 17/92/16 64/93/16 65/91/16
f 20/94/15 66/95/15 64/93/15
f 66/95/14 2/96/14 63/97/14
f 46/65/29 56/67/29 60/76/29
f 50/44/30 60/76/30 52/73/30
f 44/43/31 54/68/31 56/67/31
f 48/60/32 58/69/32 53/45/32
f 48/60/33 49/40/33 59/74/33
f 47/64/34 57/47/34 54/68/34
f 51/62/35 61/75/35 59/74/35
f 51/62/36 45/61/36 55/66/36
f 63/82/13 2/98/13 5/83/13
f 5/83/12 8/86/12 67/85/12
f 8/86/11 10/88/11 69/87/11
f 10/88/10 13/90/10 68/89/10
f 13/90/17 17/92/17 65/91/17
f 17/92/16 20/94/16 64/93/16
f 20/94/15 22/99/15 66/95/15
f 66/95/14 22/99/14 2/96/14
