# Blender 4.5.4 LTS
# www.blender.org
mtllib cliff_top_plane.mtl
o cliff_top_rock
v 0.333333 -0.115000 0.900000
v 0.291667 -0.132125 0.900000
v 0.333333 -0.015000 1.000000
v 0.166667 -0.083500 1.000000
v 0.250000 -0.124250 0.925000
v 0.208333 -0.166375 0.900000
v 0.166667 -0.183500 0.900000
v 0.500000 -0.083500 1.000000
v 0.500000 0.085000 1.000000
v -0.500000 0.085000 1.000000
v -0.000000 -0.015000 1.000000
v -0.166667 -0.083500 1.000000
v -0.333333 -0.015000 1.000000
v -0.500000 -0.083500 1.000000
v -0.166667 -0.183500 0.900000
v -0.208333 -0.166375 0.900000
v -0.250000 -0.099250 0.950000
v -0.333333 -0.115000 0.900000
v -0.291667 -0.132125 0.900000
v 0.125000 -0.166375 0.900000
v 0.083333 -0.099250 0.950000
v -0.000000 -0.115000 0.900000
v 0.041667 -0.132125 0.900000
v 0.500000 -0.183500 0.900000
v -0.500000 -0.183500 0.900000
v 0.500000 0.085000 -0.000000
v 0.500000 -0.083500 -0.000000
v -0.166667 -0.083500 -0.000000
v -0.333333 -0.015000 -0.000000
v 0.333333 -0.015000 -0.000000
v 0.166667 -0.083500 -0.000000
v -0.000000 -0.015000 -0.000000
v -0.500000 0.085000 -0.000000
v -0.500000 -0.083500 -0.000000
vn 0.2791 -0.6790 0.6790
vn -0.0000 -0.0000 1.0000
vn -0.2791 -0.6790 0.6790
vn 1.0000 -0.0000 -0.0000
vn -0.3801 -0.9249 -0.0000
vn 0.3801 -0.9249 -0.0000
vn -0.0000 -0.0000 -1.0000
vn -0.0000 1.0000 -0.0000
vn -1.0000 -0.0000 -0.0000
vt 18.124680 35.405510
vt 14.854480 30.042660
vt 16.628050 30.042660
vt 11.030410 35.405510
vt 13.455070 31.383381
vt 11.307350 30.042660
vt 9.533781 30.042660
vt -19.685040 -19.685040
vt -13.123360 -15.748030
vt -19.685040 -13.051180
vt 19.685040 -19.685040
vt 0.000000 -15.748030
vt -6.561679 -13.051180
vt 6.561680 -13.051180
vt 13.123360 -15.748030
vt 19.685040 -13.051180
vt -11.030410 35.405510
vt -11.307350 30.042660
vt -9.533781 30.042660
vt -13.829230 32.724091
vt -18.124680 35.405510
vt -16.628050 30.042660
vt -14.854480 30.042660
vt 1.107733 38.792961
vt 0.830800 33.430111
vt 2.604367 33.430111
vt -1.691084 36.111530
vt -5.986535 38.792961
vt -4.489901 33.430111
vt -2.716334 33.430111
vt 13.245880 42.180401
vt 7.648247 36.817558
vt 14.742520 36.817558
vt 6.151614 42.180401
vt -6.151614 42.180401
vt -14.742520 36.817558
vt -7.648247 36.817558
vt -13.245880 42.180401
vt 5.986535 38.792961
vt -2.604367 33.430111
vt 4.489901 33.430111
vt -1.107733 38.792961
vt 13.051180 39.370079
vt 19.685040 0.000000
vt 19.685040 39.370079
vt 13.051180 0.000000
vt -11.030410 39.370079
vt -18.124680 -0.000000
vt -11.030410 -0.000000
vt -18.124680 39.370079
vt 13.245880 39.370079
vt 6.151614 -0.000000
vt 13.245880 -0.000000
vt 6.151614 39.370079
vt 1.107733 39.370079
vt -5.986535 0.000000
vt 1.107733 -0.000000
vt -5.986535 39.370079
vt 18.124680 39.370079
vt 11.030410 -0.000000
vt 18.124680 -0.000000
vt 11.030410 39.370079
vt -0.000000 -15.748030
vt 6.561679 -13.051180
vt -6.561680 -13.051180
vt 5.986535 0.000000
vt -1.107733 39.370079
vt -1.107733 -0.000000
vt 5.986535 39.370079
vt -6.151614 39.370079
vt -13.245880 -0.000000
vt -6.151614 -0.000000
vt -13.245880 39.370079
vt -19.685040 -0.000000
vt 19.685040 -0.000000
vt -19.685040 39.370079
vt -13.051180 -0.000000
vt -19.685040 0.000000
vt -13.051180 39.370079
s 1
g cliff_top_rock_grass
usemtl grass
f 3/1/1 2/2/1 1/3/1
f 2/2/1 3/1/1 4/4/1
f 2/2/1 4/4/1 5/5/1
f 5/5/1 4/4/1 6/6/1
f 6/6/1 4/4/1 7/7/1
f 9/8/2 3/9/2 8/10/2
f 3/9/2 9/8/2 10/11/2
f 3/9/2 10/11/2 11/12/2
f 3/9/2 11/12/2 4/13/2
f 11/12/2 10/11/2 12/14/2
f 12/14/2 10/11/2 13/15/2
f 13/15/2 10/11/2 14/16/2
f 12/17/3 16/18/3 15/19/3
f 16/18/3 12/17/3 17/20/3
f 13/21/3 17/20/3 12/17/3
f 18/22/3 17/20/3 13/21/3
f 17/20/3 18/22/3 19/23/3
f 4/24/3 20/25/3 7/26/3
f 20/25/3 4/24/3 21/27/3
f 11/28/3 21/27/3 4/24/3
f 22/29/3 21/27/3 11/28/3
f 21/27/3 22/29/3 23/30/3
f 8/31/3 1/32/3 24/33/3
f 1/32/3 8/31/3 3/34/3
f 13/35/1 25/36/1 18/37/1
f 25/36/1 13/35/1 14/38/1
f 11/39/1 15/40/1 22/41/1
f 15/40/1 11/39/1 12/42/1
g cliff_top_rock_dirt
usemtl dirt
f 8/43/4 26/44/4 9/45/4
f 26/44/4 8/43/4 27/46/4
f 12/47/5 29/48/5 28/49/5
f 29/48/5 12/47/5 13/50/5
f 8/51/5 30/52/5 27/53/5
f 30/52/5 8/51/5 3/54/5
f 4/55/5 32/56/5 31/57/5
f 32/56/5 4/55/5 11/58/5
f 3/59/6 31/60/6 30/61/6
f 31/60/6 3/59/6 4/62/6
f 30/15/7 26/11/7 27/16/7
f 26/11/7 30/15/7 33/8/7
f 33/8/7 30/15/7 32/63/7
f 32/63/7 30/15/7 31/64/7
f 33/8/7 32/63/7 28/65/7
f 33/8/7 28/65/7 29/9/7
f 33/8/7 29/9/7 34/10/7
f 32/66/6 12/67/6 28/68/6
f 12/67/6 32/66/6 11/69/6
f 13/70/6 34/71/6 29/72/6
f 34/71/6 13/70/6 14/73/6
f 10/45/8 26/74/8 33/75/8
f 26/74/8 10/45/8 9/76/8
f 34/77/9 10/76/9 33/78/9
f 10/76/9 34/77/9 14/79/9
o Plane
v -0.500000 -0.011019 1.000000
v 0.500000 -0.011019 1.000000
v -0.500000 3.000000 1.000000
v 0.500000 3.000000 1.000000
vn -0.0000 -0.0000 1.0000
vt 0.000000 0.000000
vt 1.000000 0.000000
vt 1.000000 1.000000
vt 0.000000 1.000000
s 0
g Plane_grass
usemtl grass
f 35/80/10 36/81/10 38/82/10 37/83/10
