# Blender v3.0.0 OBJ File: ''
# www.blender.org
o Cube_Cube.001
v 0.102555 -0.230747 -0.061142
v 0.250824 -0.003948 0.067615
v -0.126946 -0.187633 0.127195
v 0.021324 0.039166 0.255952
v -0.021324 -0.039166 -0.255952
v 0.126946 0.187633 -0.127195
v -0.250824 0.003948 -0.067615
v -0.102555 0.230747 0.061142
vn 0.4129 -0.6386 0.6494
vn -0.4129 0.6386 -0.6494
vn 0.7650 -0.1437 -0.6278
vn -0.4942 -0.7560 -0.4292
vn 0.4942 0.7560 0.4292
vn -0.7650 0.1437 0.6278
s off
usemtl ground
f 2//1 3//1 1//1
f 8//2 5//2 7//2
f 6//3 1//3 5//3
f 7//4 1//4 3//4
f 4//5 6//5 8//5
f 4//6 7//6 3//6
f 2//1 4//1 3//1
f 8//2 6//2 5//2
f 6//3 2//3 1//3
f 7//4 5//4 1//4
f 4//5 2//5 6//5
f 4//6 8//6 7//6
