# Blender v3.0.0 OBJ File: 'leaf_collectable.blend'
# www.blender.org
mtllib leaf_collectable.mtl
o Cube_Cube.001
v 0.050000 0.769130 -1.068894
v 0.150000 0.307748 -0.970779
v -0.050000 0.769130 -1.068894
v -0.150000 0.307748 -0.970779
v 0.050000 0.786115 -1.051793
v 0.400000 0.465687 -0.902375
v -0.050000 0.786115 -1.051793
v -0.400000 0.465687 -0.902375
v 0.350000 0.042769 -0.535135
v -0.350000 0.042769 -0.535135
v -0.600000 0.200708 -0.466731
v 0.600000 0.200708 -0.466731
v 0.000000 0.381857 -0.943806
v 0.000000 0.816115 -1.051793
v 0.000000 0.116878 -0.508162
v 0.200000 0.411937 -0.932858
v -0.200000 0.444111 -0.921147
v -0.300000 0.179132 -0.485503
v 0.300000 0.146957 -0.497213
v 0.000000 0.260764 -0.987880
v 0.000000 -0.004215 -0.552236
v 0.000000 0.769130 -1.068894
v 0.000000 -0.222210 -0.099490
v -0.350000 -0.128241 -0.065288
v -0.650000 0.029698 0.003116
v 0.350000 -0.024053 -0.027367
v 0.650000 0.029698 0.003116
v 0.350000 -0.128241 -0.065288
v -0.350000 0.008122 -0.015656
v 0.000000 -0.054132 -0.038315
v 0.000000 -0.299251 0.404558
v -0.350000 -0.205281 0.438760
v -0.550000 -0.047343 0.507164
v 0.300000 -0.101093 0.476681
v 0.550000 -0.047343 0.507164
v 0.350000 -0.205281 0.438760
v -0.300000 -0.068918 0.488392
v 0.000000 -0.178158 0.448632
v 0.000000 -0.290787 0.673683
v -0.100000 -0.290786 0.673683
v -0.300000 -0.162732 0.678002
v 0.300000 -0.162732 0.678002
v 0.100000 -0.290786 0.673683
v 0.000000 -0.160296 0.721178
v 0.100000 -0.189763 0.721372
v -0.100000 -0.189763 0.721372
v -0.075000 -0.585649 1.045242
v 0.075000 -0.585649 1.045242
v 0.075000 -0.501611 1.075830
v -0.075000 -0.501611 1.075830
v -0.100000 -0.840786 1.136148
v 0.100000 -0.840786 1.136148
v 0.100000 -0.922494 1.229896
v -0.100000 -0.922494 1.229896
vt 0.000000 0.000000
vt 0.312500 0.375000
vt 0.000000 0.000000
vt 0.000000 0.000000
vt 0.000000 0.000000
vt 0.000000 0.000000
vt 0.000000 0.000000
vt 0.000000 0.000000
vt 0.000000 0.000000
vt 0.000000 0.000000
vt 0.312500 0.375000
vt 0.312500 0.375000
vt 0.625000 0.250000
vt 0.125000 0.625000
vt 0.625000 0.125000
vt 0.375000 0.250000
vt 0.625000 0.500000
vt 0.375000 0.500000
vt 0.375000 0.750000
vt 0.000000 0.000000
vt 0.625000 0.750000
vt 0.375000 1.000000
vt 0.125000 0.750000
vt 0.625000 0.125000
vt 0.625000 0.000000
vt 0.625000 0.125000
vt 0.625000 0.687500
vt 0.625000 0.000000
vt 0.625000 1.000000
vt 0.625000 1.000000
vt 0.625000 0.625000
vt 0.000000 0.000000
vt 0.375000 0.625000
vt 0.000000 0.000000
vt 0.625000 0.562500
vt 0.625000 0.250000
vt 0.625000 0.625000
vt 0.625000 0.687500
vt 0.625000 0.687500
vt 0.625000 0.750000
vt 0.625000 1.000000
vt 0.625000 0.750000
vt 0.625000 0.250000
vt 0.625000 0.500000
vt 0.625000 0.500000
vt 0.625000 0.562500
vt 0.625000 0.625000
vt 0.625000 0.250000
vt 0.625000 0.125000
vt 0.625000 0.562500
vt 0.625000 0.500000
vt 0.000000 0.000000
vt 0.625000 0.250000
vt 0.625000 0.000000
vt 0.625000 0.125000
vt 0.625000 0.750000
vt 0.000000 0.000000
vt 0.125000 0.500000
vt 0.625000 0.000000
vt 0.625000 0.500000
vt 0.625000 0.000000
vt 0.625000 0.750000
vt 0.625000 1.000000
vt 0.625000 1.000000
vn 0.9985 -0.0190 0.0521
vn -0.9985 -0.0235 0.0498
vn 0.0000 0.7508 0.6605
vn 0.0000 -0.7833 -0.6216
vn -0.9934 0.0867 0.0755
vn 0.0000 -0.7539 -0.6570
vn 0.0000 -0.3356 -0.9420
vn 0.0000 0.3437 0.9391
vn 0.9897 0.0490 -0.1346
vn 0.9985 -0.0235 0.0498
vn -0.9985 -0.0190 0.0521
vn -0.9897 0.0490 -0.1346
vn 0.9934 0.0867 0.0755
vn -0.1598 -0.1554 -0.9748
vn -0.6889 0.5143 -0.5108
vn -0.2047 0.2210 0.9535
vn 0.6889 0.5143 -0.5108
vn 0.0000 0.7095 -0.7047
vn 0.2735 -0.8667 -0.4173
vn -0.2941 0.7851 0.5451
vn 0.3107 -0.8121 -0.4940
vn 0.5371 -0.5884 -0.6044
vn -0.1550 0.8440 0.5134
vn -0.0891 0.2404 0.9666
vn 0.1820 0.2373 0.9542
vn 0.1217 0.3072 0.9438
vn 0.1402 0.8313 0.5378
vn -0.1371 -0.8171 -0.5599
vn 0.1598 -0.1554 -0.9748
vn -0.0892 0.9859 0.1418
vn -0.0911 0.9326 0.3491
vn 0.5664 -0.7744 -0.2819
vn 0.2156 0.9176 0.3340
vn -0.1997 0.9138 0.3538
vn -0.5437 -0.7993 0.2558
vn 0.3598 0.9042 0.2303
vn -0.2698 -0.9519 -0.1455
vn 0.0956 0.9854 0.1411
vn -0.6192 -0.7853 0.0028
vn 0.3343 0.9405 -0.0616
vn -0.2649 -0.9619 -0.0682
vn 0.0000 -0.9995 0.0314
vn -0.2427 0.9680 -0.0634
vn -0.2262 0.7717 0.5945
vn 0.1100 0.8909 0.4408
vn 0.2460 -0.4138 0.8765
vn -0.2460 -0.4138 0.8765
vn 0.0000 -0.2080 -0.9781
vn -0.3351 -0.1259 -0.9337
vn 0.2257 0.3761 0.8987
vn 0.3351 -0.1259 -0.9337
vn -0.2010 0.3350 -0.9205
vn 0.2010 0.3350 -0.9205
vn 0.1414 -0.9302 -0.3386
vn -0.2005 0.7934 0.5747
vn 0.1371 -0.8171 -0.5599
vn -0.1036 0.8390 0.5341
vn -0.2662 0.4436 0.8558
vn 0.0941 0.8308 0.5485
vn -0.3107 -0.8121 -0.4940
vn -0.2625 0.9351 0.2382
vn -0.1061 0.9344 0.3401
vn 0.4976 -0.7967 -0.3429
vn 0.1860 0.9168 0.3535
vn -0.5177 -0.8171 0.2535
vn 0.1818 0.9746 0.1309
vn 0.0795 0.9876 0.1352
vn -0.4852 -0.8644 -0.1321
vn 0.2649 -0.9619 -0.0682
vn 0.0250 0.8960 0.4433
vn -0.5371 -0.5884 -0.6044
vn 0.3089 0.8126 0.4942
vn -0.1414 -0.9302 -0.3386
vn -0.4976 -0.7967 -0.3429
vn 0.0889 0.9329 0.3490
vn -0.1863 0.9761 0.1122
vn 0.2698 -0.9519 -0.1455
vn 0.4852 -0.8644 -0.1321
vn 0.5177 -0.8171 0.2535
vn -0.2345 0.9295 0.2846
vn 0.2438 0.8308 0.5004
vn 0.2098 0.8132 0.5428
vn -0.2735 -0.8667 -0.4173
vn -0.5664 -0.7744 -0.2819
vn -0.2231 0.9667 0.1256
vn 0.6192 -0.7853 0.0028
vn 0.5437 -0.7993 0.2558
vn -0.0656 0.9541 0.2921
usemtl Stem_Color
s off
f 43/1/1 49/2/1 48/3/1
f 40/4/2 50/5/2 46/6/2
f 49/2/3 46/6/3 50/5/3
f 48/3/4 40/4/4 43/1/4
f 50/5/5 51/7/5 54/8/5
f 52/9/6 54/8/6 51/7/6
f 48/3/7 51/7/7 47/10/7
f 50/5/8 53/11/8 49/2/8
f 49/2/9 52/9/9 48/3/9
f 43/1/10 45/12/10 49/2/10
f 40/4/11 47/10/11 50/5/11
f 49/2/3 45/12/3 46/6/3
f 48/3/4 47/10/4 40/4/4
f 50/5/12 47/10/12 51/7/12
f 52/9/6 53/11/6 54/8/6
f 48/3/7 52/9/7 51/7/7
f 50/5/8 54/8/8 53/11/8
f 49/2/13 53/11/13 52/9/13
usemtl Leaf_Color
f 4/13/14 22/14/14 20/15/14
f 3/16/15 8/17/15 7/18/15
f 5/19/16 16/20/16 6/21/16
f 6/21/17 1/22/17 5/19/17
f 5/19/18 1/23/18 22/14/18
f 21/24/19 28/25/19 23/26/19
f 19/27/20 6/21/20 16/20/20
f 2/28/21 21/24/21 20/15/21
f 6/21/22 9/29/22 2/30/22
f 15/31/23 16/20/23 13/32/23
f 14/33/24 13/32/24 16/20/24
f 17/34/25 13/32/25 14/33/25
f 17/34/26 7/18/26 8/17/26
f 8/17/27 18/35/27 17/34/27
f 4/13/28 21/24/28 10/36/28
f 22/14/29 2/28/29 20/15/29
f 30/37/30 34/38/30 26/39/30
f 19/27/31 30/37/31 26/39/31
f 12/40/32 28/41/32 9/29/32
f 18/35/33 30/37/33 15/31/33
f 12/40/34 26/39/34 27/42/34
f 32/43/35 41/44/35 33/45/35
f 30/37/36 37/46/36 38/47/36
f 24/48/37 31/49/37 32/43/37
f 29/50/38 33/45/38 37/46/38
f 25/51/39 32/43/39 33/45/39
f 38/47/40 37/46/40 44/52/40
f 31/49/41 40/53/41 32/43/41
f 31/49/42 43/54/42 39/55/42
f 34/38/43 38/47/43 44/52/43
f 37/46/44 46/6/44 44/52/44
f 33/45/45 41/44/45 37/46/45
f 42/56/46 45/12/46 43/1/46
f 41/57/47 40/4/47 46/6/47
f 4/13/48 3/58/48 22/14/48
f 3/16/49 4/13/49 8/17/49
f 5/19/50 14/33/50 16/20/50
f 6/21/51 2/30/51 1/22/51
f 22/14/18 3/58/18 7/18/18
f 7/18/52 14/33/52 22/14/52
f 14/33/53 5/19/53 22/14/53
f 21/24/54 9/59/54 28/25/54
f 19/27/55 12/40/55 6/21/55
f 2/28/56 9/59/56 21/24/56
f 6/21/22 12/40/22 9/29/22
f 15/31/57 19/27/57 16/20/57
f 17/34/58 14/33/58 7/18/58
f 8/17/59 11/60/59 18/35/59
f 4/13/60 20/15/60 21/24/60
f 22/14/48 1/22/48 2/28/48
f 30/37/61 38/47/61 34/38/61
f 19/27/62 15/31/62 30/37/62
f 12/40/63 27/42/63 28/41/63
f 18/35/64 29/50/64 30/37/64
f 12/40/34 19/27/34 26/39/34
f 32/43/65 40/53/65 41/44/65
f 30/37/66 29/50/66 37/46/66
f 24/48/37 23/26/37 31/49/37
f 29/50/67 25/51/67 33/45/67
f 25/51/68 24/48/68 32/43/68
f 31/49/42 39/55/42 40/53/42
f 31/49/69 36/61/69 43/54/69
f 37/46/70 41/57/70 46/6/70
usemtl Leaf_Color_Spot
f 8/17/71 10/36/71 11/60/71
f 17/34/72 15/31/72 13/32/72
f 21/24/73 24/48/73 10/36/73
f 11/60/74 24/48/74 25/51/74
f 11/60/75 29/50/75 18/35/75
f 26/39/76 35/62/76 27/42/76
f 28/25/77 31/49/77 23/26/77
f 27/42/78 36/63/78 28/41/78
f 36/63/79 42/56/79 43/64/79
f 35/62/80 34/38/80 42/56/80
f 45/12/81 34/38/81 44/52/81
f 8/17/71 4/13/71 10/36/71
f 17/34/82 18/35/82 15/31/82
f 21/24/83 23/26/83 24/48/83
f 11/60/84 10/36/84 24/48/84
f 11/60/75 25/51/75 29/50/75
f 26/39/85 34/38/85 35/62/85
f 28/25/77 36/61/77 31/49/77
f 27/42/86 35/62/86 36/63/86
f 36/63/87 35/62/87 42/56/87
f 45/12/88 42/56/88 34/38/88
